<?xml version="1.0" standalone="no"?>
<!DOCTYPE svg PUBLIC "-//W3C//DTD SVG 20010904//EN"
 "http://www.w3.org/TR/2001/REC-SVG-20010904/DTD/svg10.dtd">
<svg version="1.0" xmlns="http://www.w3.org/2000/svg"
 width="2048.000000pt" height="2048.000000pt" viewBox="0 0 2048.000000 2048.000000"
 preserveAspectRatio="xMidYMid meet">
<metadata>
Created by potrace 1.14, written by Peter Selinger 2001-2017
</metadata>
<g transform="translate(0.000000,2048.000000) scale(0.100000,-0.100000)"
fill="#000000" stroke="none">
<path d="M5800 20051 c-47 -14 -116 -22 -100 -11 13 8 13 10 -2 10 -10 0 -18
-4 -18 -10 0 -5 -7 -10 -15 -10 -23 0 -76 -30 -71 -39 3 -4 -5 -13 -19 -19
-18 -8 -25 -8 -28 1 -7 23 -164 -98 -200 -154 -10 -15 -27 -31 -38 -34 -10 -4
-19 -11 -19 -16 0 -6 -13 -29 -28 -52 -34 -50 -69 -124 -77 -163 -4 -16 -9
-36 -12 -44 -4 -8 -7 -19 -8 -25 0 -5 -7 -23 -14 -40 -19 -42 -25 -90 -30
-233 0 -27 -5 -41 -11 -37 -11 7 -10 1 10 -90 28 -126 46 -186 73 -240 16 -33
30 -70 32 -82 1 -12 34 -57 72 -100 82 -91 191 -158 313 -193 41 -12 82 -24
90 -27 8 -3 38 -5 65 -5 28 0 54 -3 60 -6 15 -9 45 -10 51 0 3 4 0 8 -6 8 -6
0 -8 5 -5 10 4 6 20 9 37 6 37 -6 49 -16 20 -16 -12 0 -22 -5 -22 -11 0 -6 14
-9 33 -8 18 2 38 0 44 -4 6 -4 15 -2 19 4 4 8 3 9 -4 5 -7 -4 -12 -2 -12 3 0
6 15 11 33 11 24 0 28 -3 17 -10 -13 -8 -12 -10 3 -10 9 0 17 4 17 9 0 4 19
11 43 14 23 3 56 13 72 21 17 8 44 16 60 17 36 4 66 26 59 44 -3 7 5 19 18 26
32 17 36 26 28 64 -8 36 -3 83 12 102 5 6 5 14 0 17 -5 3 -7 19 -4 36 3 24 1
30 -14 30 -18 1 -18 1 -1 14 23 18 8 28 -31 21 -18 -3 -44 3 -68 15 l-39 19
38 1 c20 0 37 5 37 10 0 9 -15 14 -23 8 -2 -2 -11 3 -20 10 -10 9 -27 11 -47
7 -28 -6 -95 8 -113 24 -4 4 21 7 55 7 35 -1 67 -5 71 -11 6 -6 10 -6 14 2 3
8 14 11 28 7 15 -4 33 1 47 11 15 11 17 15 6 12 -20 -7 -25 9 -5 16 10 4 10 6
0 6 -7 1 -13 5 -13 10 0 4 10 6 23 4 27 -5 57 39 57 85 0 16 7 35 15 42 18 15
20 81 3 99 -11 10 -10 11 3 6 13 -5 15 -1 12 19 -3 14 -1 26 4 26 10 0 10 41
-1 58 -4 7 -18 12 -30 12 -13 0 -29 6 -35 14 -11 13 -4 12 50 0 64 -15 93 -8
65 15 -13 11 -13 15 -2 27 8 7 12 22 10 32 -4 13 1 18 17 19 13 1 26 8 30 15
4 7 16 23 27 36 12 13 18 30 15 38 -3 8 0 14 6 14 19 0 36 47 23 63 -9 10 -5
25 13 62 30 59 31 79 4 106 -11 11 -19 28 -17 37 5 25 -51 84 -73 77 -9 -3
-20 -2 -23 4 -3 5 -24 12 -46 16 -39 7 -52 19 -28 27 15 5 -24 20 -142 53 -52
15 -108 32 -124 38 -37 13 -69 17 -191 22 -55 2 -111 0 -125 -4z m-283 -124
c-200 -153 -318 -366 -357 -646 -6 -41 -13 -77 -17 -80 -10 -10 8 183 19 196
6 7 8 20 4 28 -3 8 -2 15 2 15 4 0 18 35 32 78 23 74 33 96 74 158 11 16 30
45 42 64 34 50 132 155 179 188 45 33 65 32 22 -1z m353 -355 c0 -4 -9 -8 -20
-9 -11 -1 -20 2 -20 8 0 5 9 9 20 9 11 0 20 -4 20 -8z m30 -46 c0 -2 -13 -6
-30 -8 -16 -3 -30 -1 -30 4 0 4 14 8 30 8 17 0 30 -2 30 -4z m-90 -24 c-8 -3
-30 -21 -47 -41 -18 -20 -33 -31 -33 -24 0 21 68 85 82 77 9 -6 9 -9 -2 -12z
m193 1 c-7 -2 -21 -2 -30 0 -10 3 -4 5 12 5 17 0 24 -2 18 -5z m-23 -84 c0
-14 -17 -10 -23 5 -4 10 -1 13 9 9 7 -3 14 -9 14 -14z m-240 -3 c0 -3 -4 -8
-10 -11 -5 -3 -10 -1 -10 4 0 6 5 11 10 11 6 0 10 -2 10 -4z m298 -19 c2 -10
-3 -17 -12 -17 -9 0 -15 6 -13 13 1 6 -4 11 -10 10 -7 -2 -13 1 -13 7 0 17 45
4 48 -13z m252 -17 c0 -5 -2 -10 -4 -10 -3 0 -8 5 -11 10 -3 6 -1 10 4 10 6 0
11 -4 11 -10z m-580 -8 c0 -5 -7 -17 -15 -28 -14 -18 -14 -17 -4 9 12 27 19
34 19 19z m115 -2 c3 -5 1 -10 -4 -10 -6 0 -11 5 -11 10 0 6 2 10 4 10 3 0 8
-4 11 -10z m255 6 c0 -2 -7 -7 -16 -10 -8 -3 -12 -2 -9 4 6 10 25 14 25 6z
m-65 -206 c3 -5 1 -10 -4 -10 -6 0 -11 5 -11 10 0 6 2 10 4 10 3 0 8 -4 11
-10z m45 -2 c0 -4 -7 -8 -15 -8 -8 0 -15 4 -15 8 0 5 7 9 15 9 8 0 15 -4 15
-9z m-3 -40 c-3 -8 -6 -5 -6 6 -1 11 2 17 5 13 3 -3 4 -12 1 -19z m-22 2 c3
-5 1 -10 -4 -10 -6 0 -11 5 -11 10 0 6 2 10 4 10 3 0 8 -4 11 -10z m105 -9 c0
-5 -9 -7 -20 -4 -11 3 -20 7 -20 9 0 2 9 4 20 4 11 0 20 -4 20 -9z m-102 -57
c1 -20 -3 -24 -28 -24 -17 0 -30 5 -30 10 0 6 7 10 15 10 8 0 12 6 9 13 -2 7
3 13 14 14 12 1 18 -6 20 -23z m-73 -14 c-3 -5 -12 -7 -20 -3 -21 7 -19 13 6
13 11 0 18 -4 14 -10z m-122 -17 c-7 -2 -21 -2 -30 0 -10 3 -4 5 12 5 17 0 24
-2 18 -5z m320 -32 c5 -1 5 -5 2 -11 -3 -5 0 -7 8 -4 8 3 18 1 22 -5 4 -7 -7
-11 -29 -11 -19 0 -38 5 -41 10 -3 6 -18 11 -33 11 -27 1 -27 1 3 8 17 4 37 6
45 5 8 -1 19 -3 23 -3z m-123 -10 c0 -5 -9 -7 -20 -4 -11 3 -20 7 -20 9 0 2 9
4 20 4 11 0 20 -4 20 -9z m0 -55 c0 -2 -9 -6 -20 -9 -11 -3 -18 -1 -14 4 5 9
34 13 34 5z m-706 -272 c16 -23 118 -104 133 -104 4 0 19 -10 33 -21 18 -15
11 -13 -29 8 -52 27 -203 159 -169 147 9 -3 24 -16 32 -30z m465 -200 c16 -14
-19 -14 -81 -1 l-73 15 75 -5 c41 -3 77 -7 79 -9z"/>
<path d="M14650 19753 c-19 -2 -109 -24 -200 -48 -91 -24 -250 -60 -355 -80
-104 -20 -257 -50 -340 -67 -179 -36 -246 -35 -555 12 -590 90 -711 81 -867
-64 -78 -72 -111 -125 -163 -256 -52 -129 -58 -141 -135 -265 -34 -55 -78
-140 -99 -190 -52 -126 -80 -170 -129 -203 -125 -87 -293 -98 -784 -52 -114
11 -226 19 -248 19 -22 -1 1 -6 50 -10 594 -57 723 -81 879 -162 191 -99 275
-251 263 -477 -9 -179 -68 -343 -209 -584 -97 -165 -119 -217 -158 -372 -17
-64 -39 -131 -50 -150 -26 -42 -103 -80 -190 -94 -105 -16 -324 -12 -499 11
-89 11 -185 19 -213 17 -52 -3 -53 -4 -52 -33 2 -36 40 -101 148 -250 148
-206 281 -361 625 -731 398 -429 511 -592 571 -829 25 -99 84 -247 240 -605
165 -379 241 -636 275 -927 19 -161 19 -287 0 -555 -60 -861 -41 -1273 80
-1765 46 -187 92 -321 266 -774 277 -723 332 -929 332 -1244 1 -178 -14 -274
-64 -440 -40 -130 -80 -207 -174 -335 -168 -229 -217 -383 -295 -925 -42 -293
-63 -416 -115 -685 -71 -368 -90 -623 -82 -1085 6 -286 14 -387 52 -660 23
-162 16 -293 -21 -400 -27 -79 -58 -141 -476 -960 -265 -517 -341 -650 -426
-745 -38 -43 -41 -45 -72 -33 l-31 12 43 -52 c68 -80 271 -348 267 -352 -2 -2
-60 21 -129 51 -179 78 -339 120 -355 94 -4 -6 12 -10 37 -10 64 0 174 -33
301 -91 62 -28 126 -55 142 -60 19 -6 46 -31 72 -66 24 -31 42 -57 40 -58 -1
-1 -34 3 -73 8 -58 8 -83 7 -137 -6 -69 -18 -303 -116 -277 -117 8 0 68 23
133 51 139 60 202 71 304 53 71 -12 76 -15 158 -89 47 -43 85 -81 85 -85 0 -8
-83 -45 -180 -80 -51 -19 -52 -20 -15 -14 22 3 80 23 129 44 l89 39 38 -27
c21 -15 39 -29 39 -33 0 -3 -24 -13 -52 -23 -73 -25 -548 -258 -548 -268 0 -5
93 38 208 96 221 111 385 180 411 173 9 -2 62 -37 119 -77 l102 -72 -162 -98
c-89 -53 -164 -103 -166 -109 -2 -7 33 11 79 40 161 102 242 149 256 149 14 0
103 -48 103 -56 0 -2 -36 -39 -81 -81 -78 -75 -257 -298 -247 -308 3 -3 44 45
91 107 91 120 185 223 230 252 26 18 28 18 74 -12 27 -16 68 -42 92 -57 l43
-27 -43 -44 c-54 -55 -40 -59 16 -4 l41 41 72 -42 72 -42 -22 -36 c-12 -20
-29 -47 -38 -61 -26 -38 -173 -297 -204 -358 -15 -30 -26 -58 -24 -64 2 -5 25
32 52 84 74 141 181 327 218 379 l33 47 107 -57 107 -57 -155 -133 c-85 -73
-153 -136 -150 -139 4 -3 16 3 29 14 12 11 60 54 107 95 47 41 108 93 135 116
l50 41 78 -16 c88 -17 89 -4 -4 -118 -30 -38 -69 -89 -86 -114 -78 -115 -211
-360 -195 -360 4 0 23 30 41 68 79 161 192 334 291 447 l53 60 111 5 c61 3
113 5 114 4 9 -6 -57 -112 -130 -209 -44 -58 -78 -108 -75 -111 9 -9 169 211
206 283 l21 43 70 0 c39 0 70 -3 70 -8 0 -15 -206 -249 -294 -334 -50 -49 -87
-88 -83 -88 21 0 140 119 264 263 74 86 140 157 145 157 6 0 40 -28 75 -63
l66 -64 -69 -69 c-80 -80 -207 -234 -199 -242 3 -3 6 -3 8 -1 50 68 189 227
224 257 l47 40 70 -58 c39 -33 86 -72 105 -87 l34 -29 -36 -55 c-37 -56 -82
-169 -68 -169 5 0 12 12 16 27 10 42 65 150 85 168 17 16 21 15 64 -17 l46
-33 -6 -60 c-7 -82 -33 -292 -41 -334 -4 -21 -2 -32 4 -28 6 4 18 77 28 164 9
87 20 177 24 200 l6 43 89 -64 c98 -70 135 -82 333 -111 159 -23 487 -36 637
-25 293 22 444 63 696 190 362 182 588 367 838 689 115 149 136 188 153 288
30 170 -15 374 -199 923 -138 409 -167 468 -443 902 -76 119 -156 250 -179
291 l-41 75 84 30 c46 17 117 41 158 53 41 13 67 25 59 26 -12 3 -225 -64
-291 -92 -14 -5 -23 11 -49 92 -18 54 -35 104 -38 110 -8 24 174 84 358 118
95 18 115 23 108 30 -10 10 -255 -45 -357 -80 -58 -19 -108 -35 -112 -35 -7 0
-79 217 -79 237 0 6 48 18 108 29 59 10 97 20 84 22 -12 2 -61 -4 -108 -13
-47 -10 -88 -15 -91 -11 -3 3 -20 50 -38 103 l-31 98 75 43 c42 24 125 69 185
99 59 30 106 57 103 59 -8 8 -159 -65 -266 -130 -52 -31 -98 -53 -102 -49 -3
5 -16 37 -28 72 l-21 65 38 45 c59 73 65 81 56 81 -5 0 -29 -25 -54 -56 -37
-47 -45 -53 -51 -37 -17 41 -9 52 84 109 103 64 288 159 330 169 15 4 27 11
27 17 0 22 -148 -47 -315 -147 -71 -42 -134 -77 -139 -78 -5 -1 -11 5 -13 13
-2 10 15 25 53 43 31 15 54 30 51 33 -3 3 -28 -6 -56 -21 -57 -28 -66 -27 -75
11 -9 32 -113 267 -411 919 -424 928 -647 1444 -718 1660 -79 242 -97 362 -97
678 0 125 -4 269 -10 320 -42 391 -29 591 56 845 87 263 223 465 542 806 228
243 388 551 481 924 42 167 44 193 31 353 -13 160 -4 269 30 397 11 40 20 90
20 112 0 25 5 40 13 41 6 1 93 5 192 9 l180 8 -197 -2 -197 -1 -17 45 c-9 25
-38 86 -64 136 l-48 90 112 42 c232 87 388 126 573 141 l98 8 -81 2 c-146 2
-320 -39 -608 -143 -54 -20 -99 -36 -100 -36 -1 0 -18 29 -37 65 -32 62 -33
67 -16 79 30 23 196 73 334 102 73 15 130 31 128 35 -12 18 -349 -71 -477
-126 -13 -5 -21 1 -34 28 l-17 36 33 28 c144 122 375 232 491 233 13 0 31 5
39 11 23 16 -94 0 -170 -23 -91 -28 -199 -86 -309 -168 l-95 -69 -22 32 c-12
18 -20 34 -19 37 2 3 40 21 84 40 45 18 81 37 81 42 0 9 -18 2 -112 -41 -39
-17 -70 -26 -73 -20 -4 5 -37 36 -75 68 l-69 60 37 33 c57 51 150 120 225 168
37 23 66 45 63 48 -10 9 -116 -61 -228 -151 l-111 -88 -24 22 c-79 75 -182
722 -208 1304 -18 404 -61 572 -347 1370 -148 411 -178 511 -178 582 0 60 26
106 114 202 123 134 234 316 271 446 24 82 15 173 -30 305 -78 230 -93 405
-45 535 21 56 45 95 163 268 67 98 65 114 -28 262 -41 65 -85 139 -97 164 -27
57 -36 143 -17 179 23 43 153 131 373 252 115 63 224 130 244 147 30 29 34 37
29 67 -8 49 -189 388 -253 474 -116 155 -279 228 -454 205z m870 -7640 c0 -10
-12 -54 -27 -98 -26 -78 -27 -86 -28 -355 -2 -298 -14 -407 -61 -550 -54 -162
-136 -253 -305 -337 -164 -82 -367 -142 -567 -169 -40 -5 -52 -3 -52 6 0 15
49 175 121 396 131 406 246 680 340 814 89 127 275 245 456 289 101 25 123 26
123 4z"/>
<path d="M27 19513 l-27 -4 0 -654 0 -654 43 -29 c67 -47 215 -117 302 -145
81 -26 235 -51 380 -62 78 -6 81 -6 82 15 1 14 -3 20 -11 17 -7 -3 -13 1 -13
9 0 8 8 14 18 14 28 0 49 11 49 26 0 8 -6 14 -14 14 -9 0 -13 11 -12 35 2 29
9 40 34 55 18 11 32 23 32 27 0 5 -14 17 -30 28 -21 14 -30 28 -30 48 0 17 -5
27 -15 27 -21 0 -19 14 6 36 31 28 131 153 158 197 129 212 145 418 49 617
-42 87 -167 211 -263 262 -171 89 -301 119 -535 123 -96 2 -187 1 -203 -2z
m333 -608 c108 -28 157 -62 130 -89 -5 -5 -10 -18 -10 -28 0 -10 -11 -40 -25
-67 -13 -27 -21 -51 -18 -55 4 -3 -1 -6 -9 -6 -34 0 -298 223 -298 252 0 14
171 9 230 -7z m289 -196 c-13 -26 -23 -18 -14 10 3 12 11 19 16 16 5 -4 5 -14
-2 -26z"/>
<path d="M6280 18885 c0 -9 6 -12 15 -9 8 4 15 7 15 9 0 2 -7 5 -15 9 -9 3
-15 0 -15 -9z"/>
<path d="M20430 18677 c0 -9 11 -29 25 -44 22 -26 24 -26 25 -7 0 11 -11 31
-25 44 -20 19 -25 20 -25 7z"/>
<path d="M10468 18573 c12 -2 30 -2 40 0 9 3 -1 5 -23 4 -22 0 -30 -2 -17 -4z"/>
<path d="M10628 18563 c18 -2 45 -2 60 0 15 2 0 4 -33 4 -33 0 -45 -2 -27 -4z"/>
<path d="M9448 18553 c6 -2 18 -2 25 0 6 3 1 5 -13 5 -14 0 -19 -2 -12 -5z"/>
<path d="M9280 18540 c-40 -6 -41 -7 -10 -8 19 0 60 3 90 8 54 7 54 7 10 7
-25 0 -65 -3 -90 -7z"/>
<path d="M9168 18523 c12 -2 30 -2 40 0 9 3 -1 5 -23 4 -22 0 -30 -2 -17 -4z"/>
<path d="M8995 18505 c-93 -16 -43 -17 65 0 50 7 68 13 45 13 -22 0 -71 -6
-110 -13z"/>
<path d="M8873 18483 c9 -2 25 -2 35 0 9 3 1 5 -18 5 -19 0 -27 -2 -17 -5z"/>
<path d="M20332 18449 c53 -65 65 -88 61 -113 -3 -13 2 -37 11 -54 23 -44 20
-46 -16 -13 -115 105 -156 140 -175 150 -42 22 -26 -12 33 -69 30 -30 62 -68
71 -84 20 -39 3 -53 -27 -21 -37 39 -56 33 -52 -15 4 -39 -4 -47 -40 -41 -5 0
-8 -8 -8 -18 0 -29 -16 -34 -45 -15 -25 16 -26 16 -49 -10 -22 -27 -24 -27
-59 -12 -33 13 -37 13 -37 0 0 -11 -4 -12 -19 -4 -28 14 -41 12 -35 -5 4 -8 1
-15 -6 -15 -6 0 -8 -4 -5 -10 9 -14 -1 -12 -36 6 -37 19 -43 15 -29 -21 8 -22
8 -26 -4 -22 -28 11 -24 -7 12 -51 l37 -45 -1 -136 c-2 -225 -80 -548 -175
-733 -88 -169 -237 -358 -388 -495 -167 -151 -343 -261 -546 -341 -140 -56
-244 -76 -395 -76 -111 0 -134 3 -205 27 -94 33 -262 125 -316 174 -36 32 -56
83 -51 126 1 11 -5 39 -13 63 -12 36 -13 62 -5 146 29 290 27 279 66 353 20
39 45 82 56 98 l19 27 46 -45 c46 -47 100 -81 111 -71 3 3 0 6 -6 6 -7 0 -12
5 -12 10 0 6 6 10 14 10 22 0 38 24 24 38 -16 16 -28 15 -28 -3 0 -8 -4 -15
-10 -15 -19 0 -10 27 14 39 19 11 28 10 54 -3 74 -38 107 2 48 58 -20 18 -36
38 -36 45 0 17 9 13 33 -14 27 -30 72 -26 62 6 -4 11 -2 19 4 19 17 0 13 31
-6 53 -18 19 -17 19 5 6 12 -8 22 -17 22 -20 0 -12 123 -19 136 -8 20 16 7 30
-21 23 -12 -3 -26 -1 -29 5 -4 7 1 11 13 11 34 0 44 33 19 65 -21 27 -21 28
-2 44 10 9 26 25 34 35 13 16 12 20 -10 36 -21 16 -22 20 -10 35 12 15 12 18
-3 26 -9 6 -17 19 -17 31 0 20 1 20 26 3 21 -13 28 -14 42 -3 9 7 18 13 20 14
2 1 -4 16 -12 33 -29 56 -15 80 24 41 11 -11 24 -20 29 -20 17 0 23 21 10 36
-17 21 -4 29 26 16 25 -12 55 -7 55 9 0 5 -9 9 -20 9 -11 0 -20 6 -20 14 0 7
-7 19 -15 26 -9 7 -14 18 -12 24 3 6 0 20 -6 30 -8 16 -7 18 9 11 38 -15 54
-17 54 -7 0 6 -5 14 -10 17 -6 4 -8 11 -4 16 4 6 16 2 29 -11 23 -22 23 -22
30 -1 3 11 1 29 -4 40 -16 29 -14 32 13 25 23 -5 24 -4 16 28 -15 65 -27 79
-125 164 -192 164 -317 229 -495 255 -295 43 -574 -68 -818 -326 -89 -94 -221
-273 -263 -355 -12 -25 -28 -52 -35 -60 -6 -8 -37 -64 -67 -124 -108 -210
-143 -361 -156 -682 -21 -506 41 -792 233 -1066 160 -229 502 -463 851 -583
363 -125 830 -122 1233 6 303 97 632 281 926 518 133 107 365 342 451 456 l55
73 0 1071 c0 994 -1 1071 -17 1071 -19 0 -103 52 -128 80 -34 38 -37 20 -3
-21z m-2207 -104 c33 -8 85 -25 115 -37 57 -22 184 -97 176 -105 -2 -2 -29 12
-58 32 -30 19 -101 52 -159 73 -103 36 -106 37 -249 36 -210 -1 -293 -30 -525
-182 -55 -36 -120 -84 -145 -106 -24 -23 -36 -30 -25 -17 121 148 380 297 560
321 83 12 238 4 310 -15z m115 -1005 c13 -25 2 -25 -30 0 -25 19 -25 20 -3 20
12 0 27 -9 33 -20z m2177 -753 c-59 -96 -106 -162 -66 -92 12 22 29 54 37 70
26 52 74 126 80 121 3 -3 -20 -47 -51 -99z m-134 -204 c-15 -21 -28 -39 -29
-41 -1 -2 -1 8 0 22 0 14 6 26 12 26 6 0 17 7 24 15 25 30 20 14 -7 -22z m50
17 c-5 -19 -23 -39 -23 -25 0 9 20 45 24 45 2 0 2 -9 -1 -20z m-142 -138 c-12
-22 -41 -48 -41 -36 0 8 40 54 47 54 2 0 -1 -8 -6 -18z m-199 -269 c-26 -36
-72 -79 -72 -68 0 9 80 95 88 95 2 0 -6 -12 -16 -27z m-327 -263 c-3 -5 -16
-15 -28 -21 -21 -10 -21 -9 2 10 25 23 36 27 26 11z"/>
<path d="M8813 18473 c9 -2 23 -2 30 0 6 3 -1 5 -18 5 -16 0 -22 -2 -12 -5z"/>
<path d="M8748 18463 c6 -2 18 -2 25 0 6 3 1 5 -13 5 -14 0 -19 -2 -12 -5z"/>
<path d="M8688 18453 c6 -2 18 -2 25 0 6 3 1 5 -13 5 -14 0 -19 -2 -12 -5z"/>
<path d="M6135 18420 c3 -5 8 -10 11 -10 2 0 4 5 4 10 0 6 -5 10 -11 10 -5 0
-7 -4 -4 -10z"/>
<path d="M6168 18423 c7 -3 16 -2 19 1 4 3 -2 6 -13 5 -11 0 -14 -3 -6 -6z"/>
<path d="M7590 18150 c-9 -6 -10 -10 -3 -10 6 0 15 5 18 10 8 12 4 12 -15 0z"/>
<path d="M7540 18130 c-8 -5 -10 -10 -5 -10 6 0 17 5 25 10 8 5 11 10 5 10 -5
0 -17 -5 -25 -10z"/>
<path d="M7470 18100 c-8 -5 -10 -10 -5 -10 6 0 17 5 25 10 8 5 11 10 5 10 -5
0 -17 -5 -25 -10z"/>
<path d="M7330 18041 c-170 -77 -303 -146 -508 -263 -343 -197 -584 -287 -764
-288 -55 0 -84 7 -180 46 -522 210 -1530 384 -2221 384 -301 0 -550 -37 -812
-121 -428 -136 -806 -426 -1111 -853 -266 -370 -592 -1032 -708 -1433 -123
-428 -88 -604 147 -728 138 -74 292 -99 742 -120 748 -36 1540 -104 1917 -166
344 -56 438 -108 536 -296 55 -106 88 -205 192 -570 122 -428 125 -443 125
-753 0 -285 -8 -361 -80 -800 -64 -395 -75 -491 -195 -1784 -153 -1651 -231
-2606 -250 -3076 -22 -532 -60 -830 -121 -955 -17 -33 -72 -116 -124 -185 -87
-117 -160 -226 -313 -470 -52 -82 -87 -121 -190 -218 -393 -364 -523 -518
-638 -757 -277 -575 -741 -2071 -1283 -4137 -44 -168 -92 -346 -106 -393 -14
-48 -25 -91 -25 -96 0 -5 1906 -9 4553 -9 l4552 0 43 133 c60 187 89 261 197
492 98 212 164 390 189 515 8 41 26 155 40 253 30 209 61 338 150 612 68 213
91 312 101 440 18 235 47 395 77 433 18 21 47 13 90 -25 l41 -38 -25 45 c-14
25 -58 119 -96 210 -256 605 -549 1216 -670 1400 -70 107 -101 139 -302 321
-172 155 -652 632 -819 814 -169 184 -307 349 -375 449 -120 175 -311 618
-701 1621 -81 209 -158 401 -171 426 -38 76 -178 192 -574 474 -491 350 -624
457 -835 669 -141 141 -203 213 -352 411 -182 241 -354 441 -458 532 -91 79
-165 118 -286 151 -169 48 -214 81 -287 212 -97 174 -249 667 -301 975 -22
133 -37 312 -46 570 -3 94 -15 265 -26 380 -21 229 -23 402 -9 595 11 151 1
236 -39 332 -35 81 -127 222 -243 368 -237 297 -336 442 -385 562 -21 52 -26
80 -27 158 -1 85 2 101 25 145 61 113 165 200 364 300 146 74 284 121 514 174
96 23 195 48 220 58 171 63 279 203 370 478 77 232 90 331 100 755 11 418 23
496 108 665 76 153 183 267 418 443 260 196 498 344 775 484 210 105 239 126
70 49z"/>
<path d="M19448 13616 c-114 -31 -239 -140 -278 -244 -18 -47 -21 -72 -18
-142 6 -113 31 -165 124 -257 l72 -72 -61 -25 c-110 -46 -210 -58 -292 -35
-69 19 -174 158 -210 279 -4 13 -13 29 -20 36 -6 6 -18 45 -25 85 l-14 74 -7
-44 c-5 -24 -13 -49 -19 -56 -21 -26 -90 10 -90 47 0 24 -20 14 -20 -10 0 -9
-7 -26 -15 -36 -16 -21 -19 -17 -30 47 -8 51 -25 47 -25 -8 0 -25 -4 -45 -10
-45 -5 0 -10 7 -10 17 0 14 -2 14 -17 1 -21 -17 -73 -23 -73 -8 0 6 -11 10
-25 10 -14 0 -25 6 -25 13 0 19 -38 47 -55 41 -8 -4 -15 -1 -15 4 0 6 -9 10
-20 9 -14 -1 -22 -11 -26 -32 -10 -53 14 -325 37 -415 71 -281 253 -487 506
-575 236 -82 558 -48 833 89 207 103 383 263 462 421 65 130 80 293 38 421
-53 159 -170 284 -336 357 -155 68 -235 80 -336 53z m-785 -638 c4 -12 4 -24
1 -27 -6 -7 -24 20 -24 37 0 21 17 13 23 -10z m143 -145 c-3 -4 -6 -1 -6 5 0
7 -4 12 -10 12 -5 0 -7 -8 -3 -17 7 -19 5 -18 -17 11 -10 13 -10 17 -2 12 8
-5 12 -1 12 11 0 15 3 14 16 -5 9 -13 13 -26 10 -29z m44 -53 c0 -5 -4 -10
-10 -10 -5 0 -10 5 -10 10 0 6 5 10 10 10 6 0 10 -4 10 -10z"/>
<path d="M9375 11699 c-136 -11 -207 -23 -435 -70 -389 -82 -641 -153 -626
-178 3 -5 30 -14 58 -21 97 -23 202 -68 238 -104 21 -20 75 -110 135 -222 176
-336 281 -497 396 -612 132 -132 339 -192 659 -192 212 0 506 37 770 96 203
46 198 42 227 176 19 90 13 323 -12 443 -69 336 -207 525 -442 606 -208 71
-633 106 -968 78z"/>
<path d="M204 11609 c-34 -5 -93 -19 -130 -32 l-69 -23 -2 -639 -3 -640 31 55
c110 199 311 254 632 170 175 -45 288 -96 443 -198 284 -187 469 -479 451
-714 -12 -151 -133 -444 -253 -615 -54 -77 -296 -328 -334 -348 -39 -20 -176
-65 -198 -65 -10 0 -27 8 -36 19 -9 10 -30 21 -45 24 -17 4 -31 14 -34 26 -3
12 -12 21 -21 21 -9 0 -16 5 -16 10 0 6 -9 10 -20 10 -11 0 -20 5 -20 10 0 6
5 10 10 10 6 0 15 12 20 28 6 15 15 37 21 48 13 26 9 56 -8 62 -8 2 -13 -6
-13 -22 0 -14 -5 -26 -11 -26 -6 0 -9 6 -6 14 8 21 -24 45 -48 36 -39 -16 -54
-11 -69 25 -16 38 -36 44 -57 19 -12 -14 -14 -14 -25 1 -10 13 -16 14 -32 4
-11 -7 -27 -9 -37 -6 -16 7 -15 9 4 25 15 12 19 24 15 40 -6 21 -11 23 -45 17
-21 -4 -43 -4 -48 0 -16 9 10 45 32 45 12 0 17 6 15 18 -3 12 -12 16 -31 14
-30 -3 -35 9 -12 32 17 17 20 56 4 56 -6 0 -13 -9 -16 -20 -3 -11 -9 -17 -15
-14 -5 3 -14 1 -21 -4 -9 -8 -59 -9 -85 -3 -1 1 7 10 18 21 26 26 26 43 0 35
-27 -9 -26 11 2 26 21 11 21 12 4 25 -11 8 -31 11 -50 7 -30 -6 -31 -6 -13 14
17 20 17 21 -8 25 -14 3 -36 3 -50 0 l-25 -4 0 -748 0 -749 30 -21 c43 -31
299 -160 316 -160 8 0 25 -6 37 -14 37 -24 165 -55 276 -67 594 -61 1235 342
1646 1037 151 255 266 562 311 829 26 155 24 439 -4 580 -66 332 -217 622
-469 899 -402 440 -935 721 -1502 792 -125 15 -340 17 -437 3z m421 -204 c104
-9 146 -23 53 -18 -57 4 -61 3 -45 -11 10 -8 51 -20 90 -26 80 -13 261 -59
236 -60 -8 0 -58 10 -110 21 -209 47 -351 58 -535 40 -108 -11 -243 -34 -280
-48 -7 -3 -14 0 -14 5 0 6 17 14 38 17 20 4 66 13 102 20 l65 13 -45 3 c-25 1
-63 1 -85 0 -58 -2 -26 14 55 29 36 6 71 15 78 19 17 10 275 7 397 -4z m426
-113 c-13 -2 -27 0 -32 5 -6 6 3 7 23 4 28 -4 29 -6 9 -9z m29 -36 c26 -10 28
-14 14 -18 -11 -2 -27 4 -36 14 -21 22 -20 22 22 4z m175 -72 c30 -21 5 -16
-35 7 -26 15 -29 18 -10 13 14 -4 34 -13 45 -20z m-698 0 c-3 -3 -12 -4 -19
-1 -8 3 -5 6 6 6 11 1 17 -2 13 -5z m998 -115 c43 -20 66 -39 48 -39 -11 0
-110 60 -100 60 4 0 27 -10 52 -21z m316 -256 c13 -16 12 -17 -3 -4 -10 7 -18
15 -18 17 0 8 8 3 21 -13z"/>
<path d="M275 11393 c-16 -3 -34 -9 -40 -14 -5 -5 53 -8 150 -7 88 2 149 5
135 8 -19 3 -15 6 20 11 26 3 -13 6 -95 6 -77 0 -153 -2 -170 -4z"/>
<path d="M17990 9960 c-25 -3 -79 -23 -120 -44 -174 -89 -440 -242 -507 -292
-121 -90 -207 -224 -238 -370 -19 -87 -19 -124 0 -219 32 -170 148 -324 298
-398 40 -20 87 -40 105 -43 36 -7 51 -39 33 -71 -15 -29 -115 -65 -145 -53
-13 5 -27 14 -31 19 -15 26 -24 8 -11 -24 10 -23 11 -37 4 -41 -5 -3 -8 -17
-5 -30 2 -13 3 -24 2 -24 -19 0 -68 27 -75 41 -12 22 -47 42 -54 31 -2 -4 9
-28 25 -52 32 -48 27 -66 -15 -50 -21 8 -28 7 -31 -5 -3 -8 -7 -22 -10 -31 -3
-9 -14 -18 -25 -21 -11 -3 -22 -14 -26 -25 -5 -16 -12 -19 -37 -14 -23 5 -36
1 -54 -16 -20 -19 -27 -20 -43 -10 -24 15 -80 5 -101 -19 -10 -12 -20 -15 -30
-8 -21 13 -26 11 -32 -11 -3 -11 -12 -20 -21 -20 -9 0 -16 -2 -16 -5 0 -9 237
-363 282 -421 95 -123 203 -209 341 -274 118 -55 224 -74 369 -67 98 6 131 12
212 42 204 73 405 215 603 426 203 217 292 369 357 614 102 382 -47 796 -373
1034 -79 58 -236 146 -314 176 -37 14 -45 21 -36 31 17 21 0 36 -32 29 -36 -8
-38 8 -5 30 28 18 41 55 21 55 -8 0 -18 -6 -22 -12 -13 -21 -71 -37 -108 -31
-42 7 -44 16 -9 32 30 13 27 37 -4 33 -31 -5 -27 5 9 23 26 14 28 19 18 31 -9
11 -22 14 -46 9 -36 -7 -42 1 -16 21 10 7 16 14 13 17 -11 10 -58 13 -100 7z
m-185 -134 c-91 -50 -129 -64 -123 -46 4 12 164 89 188 89 8 0 -21 -19 -65
-43z m-145 -56 c-8 -5 -19 -10 -25 -10 -5 0 -3 5 5 10 8 5 20 10 25 10 6 0 3
-5 -5 -10z m165 -1205 c-55 -46 -74 -57 -87 -49 -7 5 -25 9 -41 10 -28 2 -57
20 -57 35 0 5 33 10 73 10 39 1 86 5 102 9 17 4 32 8 35 9 3 0 -8 -10 -25 -24z
m135 -150 c-7 -9 -15 -13 -17 -11 -7 7 7 26 19 26 6 0 6 -6 -2 -15z m-286
-221 c4 -11 1 -11 -19 2 -24 16 -25 16 -18 -2 6 -17 5 -17 -11 -5 -23 19 -38
49 -31 61 7 12 70 -33 79 -56z"/>
<path d="M18511 5349 c-24 -4 -63 -18 -87 -29 -50 -25 -202 -156 -255 -221
-163 -200 -195 -581 -69 -836 88 -179 239 -283 410 -283 144 0 280 71 440 230
204 202 259 305 264 498 2 54 6 104 10 110 4 7 3 12 -3 12 -6 0 -15 -9 -21
-20 -6 -11 -19 -20 -29 -20 -23 0 -71 44 -71 66 0 12 -4 14 -12 7 -7 -6 -21
-13 -32 -17 -16 -6 -18 -2 -12 29 7 37 -8 50 -19 15 -8 -24 -21 -26 -29 -5 -3
9 -11 15 -18 14 -25 -4 -98 45 -98 65 0 10 -59 66 -70 66 -5 0 -12 5 -15 10
-4 7 2 9 19 4 32 -8 33 2 4 25 -29 24 -33 50 -5 43 15 -4 18 -2 12 8 -6 10 -4
12 7 7 22 -8 29 2 17 24 -7 15 -6 17 6 13 19 -8 18 3 -3 42 -34 62 -137 126
-233 144 -28 6 -54 10 -58 9 -3 -1 -26 -5 -50 -10z m72 -16 c-7 -2 -19 -2 -25
0 -7 3 -2 5 12 5 14 0 19 -2 13 -5z m-133 -27 c0 -2 -7 -7 -16 -10 -8 -3 -12
-2 -9 4 6 10 25 14 25 6z m-45 -26 c-3 -5 -20 -19 -38 -30 l-32 -22 33 31 c32
30 49 40 37 21z m364 -254 c8 -9 8 -16 2 -20 -6 -4 -15 3 -21 14 -12 23 2 27
19 6z m-19 -64 c0 -4 -5 -14 -11 -22 -9 -13 -10 -13 -6 2 3 9 -1 19 -9 22 -8
3 -14 10 -14 16 0 8 6 8 20 0 11 -6 20 -14 20 -18z m302 -288 c-3 -17 -7 -22
-12 -13 -9 13 -2 39 10 39 4 0 5 -12 2 -26z m-8 -136 c-5 -7 -2 -9 8 -5 12 4
14 1 11 -14 -3 -11 -10 -22 -16 -26 -6 -4 -8 0 -4 10 9 24 -10 21 -23 -2 -14
-27 -13 -44 3 -36 6 4 3 -1 -7 -9 -26 -21 -38 -20 -27 2 26 49 53 92 57 92 3
0 2 -5 -2 -12z m-74 -112 c0 -2 -8 -10 -17 -17 -16 -13 -17 -12 -4 4 13 16 21
21 21 13z"/>
<path d="M49 2603 c0 -11 -3 -13 -6 -5 -2 6 -13 12 -24 12 -17 0 -19 -8 -19
-60 0 -40 4 -60 12 -60 9 0 9 -3 0 -12 -8 -8 -12 -46 -12 -106 l0 -94 53 38
c88 63 98 74 82 90 -8 8 -21 11 -31 7 -19 -7 -14 7 14 40 11 13 13 20 4 29
-11 11 -21 8 -57 -14 -18 -12 -18 -11 -3 1 23 18 23 38 -1 46 -13 4 -17 12
-13 30 2 14 8 28 13 31 12 7 11 44 -1 44 -5 0 -10 -8 -11 -17z"/>
<path d="M20115 2289 c-12 -18 -57 -31 -66 -18 -5 8 -20 2 -50 -18 -24 -17
-62 -33 -83 -37 -124 -23 -231 -97 -305 -211 -35 -52 -50 -88 -55 -124 -6 -48
-26 -82 -26 -45 0 34 -12 5 -21 -53 -5 -32 -15 -87 -21 -123 -6 -36 -11 -83
-12 -105 -1 -22 -4 -45 -9 -52 -10 -16 -1 -202 12 -235 6 -16 8 -28 5 -28 -4
0 1 -12 11 -26 9 -15 17 -41 18 -60 1 -18 4 -31 8 -28 4 2 10 -9 14 -26 4 -16
11 -32 16 -35 5 -4 9 -15 9 -26 0 -24 45 -87 115 -160 65 -69 196 -143 309
-175 45 -12 72 -23 61 -24 -11 -1 -3 -6 19 -10 77 -15 256 13 384 60 l32 12 0
609 c-1 528 -3 607 -15 602 -8 -3 -15 -8 -15 -12 0 -4 -6 -16 -14 -27 -13 -17
-14 -17 -12 -2 1 10 13 33 27 50 13 18 25 43 26 55 2 21 1 22 -21 7 -21 -13
-24 -13 -30 2 -4 11 -14 15 -31 12 -32 -7 -31 -3 5 34 17 16 30 35 30 41 0 7
-9 1 -19 -12 l-18 -24 -22 47 c-15 31 -28 46 -39 44 -10 -2 -17 4 -17 12 -1 8
-6 23 -11 34 -10 16 -14 17 -34 6 -21 -11 -26 -9 -55 23 -18 20 -35 34 -37 31
-3 -2 -11 2 -18 11 -14 17 -36 20 -45 4z m-585 -549 c0 -5 -5 -10 -11 -10 -5
0 -7 5 -4 10 3 6 8 10 11 10 2 0 4 -4 4 -10z m-10 -131 c0 -11 -4 -17 -10 -14
-5 3 -10 13 -10 21 0 8 5 14 10 14 6 0 10 -9 10 -21z m20 -415 c91 -276 281
-440 560 -483 l65 -10 -60 4 c-127 9 -255 59 -350 134 -84 68 -127 114 -147
161 -11 24 -23 47 -27 50 -12 8 -51 116 -68 190 -13 54 -22 316 -12 340 1 3 5
-68 9 -156 6 -127 13 -177 30 -230z m690 354 c0 -4 -2 -8 -4 -8 -2 0 -12 -3
-20 -6 -11 -4 -15 -2 -11 8 6 15 35 21 35 6z m-206 -113 c3 -8 1 -15 -4 -15
-6 0 -10 7 -10 15 0 8 2 15 4 15 2 0 6 -7 10 -15z m376 -35 c0 -5 -5 -10 -11
-10 -5 0 -7 5 -4 10 3 6 8 10 11 10 2 0 4 -4 4 -10z"/>
<path d="M0 1507 c0 -89 4 -136 10 -132 14 9 60 108 60 131 0 10 9 34 21 53
23 38 20 48 -10 29 -25 -15 -49 -4 -68 33 -11 20 -13 2 -13 -114z"/>
<path d="M11664 1009 c-70 -22 -160 -79 -156 -98 1 -7 -2 -10 -7 -7 -24 15
-127 -130 -160 -226 -66 -193 -9 -440 145 -629 l39 -48 423 -1 c275 0 422 3
422 10 0 6 -9 10 -19 10 -10 0 -22 7 -25 16 -9 25 -7 72 4 79 15 9 12 25 -4
25 -21 0 -30 32 -11 42 21 12 19 28 -5 28 -13 0 -18 5 -14 15 4 8 1 22 -6 30
-6 7 -11 35 -11 62 1 148 0 163 -12 163 -5 0 -72 -12 -149 -26 -77 -14 -142
-23 -146 -20 -3 3 4 6 15 6 30 0 19 40 -11 41 -15 0 -9 6 21 19 56 25 50 51
-10 46 -23 -2 -32 -2 -20 1 23 4 53 33 35 33 -5 0 -12 7 -16 15 -3 10 8 22 34
37 41 24 59 48 37 48 -7 0 -18 -5 -24 -11 -8 -8 -11 -6 -10 7 2 13 -7 20 -28
24 -24 4 -29 10 -27 28 3 19 -1 22 -27 22 -17 0 -31 5 -31 11 0 6 -8 8 -19 4
-11 -3 -22 -1 -26 5 -3 5 2 10 13 10 17 0 32 18 32 36 0 2 -13 4 -30 4 -16 0
-30 5 -30 10 0 6 11 10 24 10 31 0 42 16 20 28 -15 9 -15 10 4 16 12 4 22 12
22 17 0 6 -9 7 -21 4 -11 -4 -37 -4 -57 0 -34 6 -35 8 -16 18 12 7 19 17 17
24 -2 6 4 13 14 16 16 4 15 6 -4 12 -12 4 -19 13 -17 20 4 9 -7 17 -33 24 -51
14 -67 13 -139 -10z m-50 -48 c-47 -28 -94 -52 -94 -47 0 6 103 66 115 66 6 0
-4 -9 -21 -19z m319 -378 c-7 -2 -19 -2 -25 0 -7 3 -2 5 12 5 14 0 19 -2 13
-5z m297 -507 c0 -11 -19 -15 -25 -6 -3 5 1 10 9 10 9 0 16 -2 16 -4z"/>
</g>
</svg>
